<svg version="1.1" viewBox="0.0 0.0 150.0 150.0" fill="none" stroke="none" stroke-linecap="square" stroke-miterlimit="10" xmlns:xlink="http://www.w3.org/1999/xlink" xmlns="http://www.w3.org/2000/svg"><clipPath id="p.0"><path d="m0 0l150.0 0l0 150.0l-150.0 0l0 -150.0z" clip-rule="nonzero"/></clipPath><g clip-path="url(#p.0)"><path fill="#000000" fill-opacity="0.0" d="m0 0l150.0 0l0 150.0l-150.0 0z" fill-rule="evenodd"/><path fill="#36393f" d="m0 0l150.01575 0l0 150.01575l-150.01575 0z" fill-rule="evenodd"/><path fill="#000000" fill-opacity="0.0" d="m45.17323 21.68504l59.653545 0l0 106.64566l-59.653545 0z" fill-rule="evenodd"/><path fill="#00ff00" d="m72.204475 91.476906l0 -14.140625l-14.015621 0l0 -5.90625l14.015621 0l0 -14.031246l5.984375 0l0 14.031246l14.03125 0l0 5.90625l-14.03125 0l0 14.140625l-5.984375 0z" fill-rule="nonzero"/></g></svg>